<svg width="32" height="32" viewBox="0 0 32 32" fill="none" xmlns="http://www.w3.org/2000/svg">
  <rect width="32" height="32" rx="8" fill="#000000"/>
  <path d="M19.321 8.5c-.827 0-1.5.673-1.5 1.5v8c0 2.485-2.015 4.5-4.5 4.5s-4.5-2.015-4.5-4.5 2.015-4.5 4.5-4.5c.276 0 .5-.224.5-.5v-2c0-.276-.224-.5-.5-.5-3.866 0-7 3.134-7 7s3.134 7 7 7 7-3.134 7-7v-4.764c1.347.832 2.918 1.264 4.5 1.264.276 0 .5-.224.5-.5v-2c0-.276-.224-.5-.5-.5-1.933 0-3.5-1.567-3.5-3.5 0-.827-.673-1.5-1.5-1.5z" fill="#FF0050"/>
  <path d="M19.321 8.5c-.827 0-1.5.673-1.5 1.5v8c0 2.485-2.015 4.5-4.5 4.5s-4.5-2.015-4.5-4.5 2.015-4.5 4.5-4.5c.276 0 .5-.224.5-.5v-2c0-.276-.224-.5-.5-.5-3.866 0-7 3.134-7 7s3.134 7 7 7 7-3.134 7-7v-4.764c1.347.832 2.918 1.264 4.5 1.264.276 0 .5-.224.5-.5v-2c0-.276-.224-.5-.5-.5-1.933 0-3.5-1.567-3.5-3.5 0-.827-.673-1.5-1.5-1.5z" fill="#25F4EE"/>
</svg>